<svg width="150" height="167" viewBox="0 0 150 167" fill="none" xmlns="http://www.w3.org/2000/svg">
<path d="M85.3125 89.8043C89.0625 89.8043 90.9375 91.7099 90.9375 95.521V97.4266C90.9375 101.238 89.0625 103.143 85.3125 103.143H66.5625V89.8043H85.3125Z" fill="#111112"/>
<path d="M82.5 63.126C86.25 63.126 88.125 65.0316 88.125 68.8428V70.7484C88.125 74.5596 86.25 76.4651 82.5 76.4651H66.5625V63.126H82.5Z" fill="#111112"/>
<path fill-rule="evenodd" clip-rule="evenodd" d="M66.3397 2.30832C71.6987 -0.770091 78.3013 -0.770092 83.6602 2.30832L141.34 35.4417C146.699 38.5201 150 44.2093 150 50.3661V116.633C150 122.79 146.699 128.479 141.34 131.557L83.6602 164.691C78.3013 167.769 71.6987 167.769 66.3397 164.691L8.66025 131.557C3.30127 128.479 0 122.79 0 116.633V50.3661C0 44.2093 3.30127 38.5201 8.66025 35.4417L66.3397 2.30832ZM50.6875 49.7869C50.1352 49.7869 49.6875 50.2346 49.6875 50.7869V115.483C49.6875 116.035 50.1352 116.483 50.6875 116.483H90C96.125 116.483 100.625 115.022 103.5 112.1C106.375 109.178 107.812 104.604 107.812 98.3794C107.812 95.7751 107.5 93.4884 106.875 91.5193C105.062 86.0566 101.625 82.6265 96.5625 81.2291C98.9375 80.2763 100.938 78.6248 102.562 76.2746C104.188 73.8608 105 70.7484 105 66.9372C105 61.1569 103.562 56.8693 100.688 54.0745C97.8125 51.2161 93.3125 49.7869 87.1875 49.7869H50.6875Z" fill="#111112"/>
<path d="M49.6875 53.7869C49.6875 51.5777 51.4784 49.7869 53.6875 49.7869H87.1875C93.3125 49.7869 97.8125 51.2161 100.688 54.0744C103.562 56.8693 105 61.1569 105 66.9372C105 70.7483 104.187 73.8608 102.562 76.2746C100.938 78.6248 98.9375 80.2763 96.5625 81.2291C101.625 82.6265 105.062 86.0566 106.875 91.5193C107.5 93.4884 107.812 95.7751 107.812 98.3794C107.812 104.604 106.375 109.178 103.5 112.1C100.625 115.022 96.125 116.482 90 116.482H53.6875C51.4784 116.482 49.6875 114.692 49.6875 112.482V53.7869ZM90.9375 95.521C90.9375 91.7098 89.0625 89.8042 85.3125 89.8042H66.5625V103.143H85.3125C89.0625 103.143 90.9375 101.238 90.9375 97.4266V95.521ZM88.125 68.8428C88.125 65.0316 86.25 63.126 82.5 63.126H66.5625V76.4651H82.5C86.25 76.4651 88.125 74.5595 88.125 70.7483V68.8428Z" fill="white"/>
</svg>
