<svg width="105" height="54" viewBox="0 0 105 54" fill="none" xmlns="http://www.w3.org/2000/svg">
<path d="M0 36.9029L2.45575 33.9843C4.66814 35.9079 6.88053 37.0024 9.78982 37.0024C12.3119 37.0024 13.9049 35.8416 13.9049 34.0174C13.9049 32.3591 12.9757 31.4636 8.6615 30.4355C3.71681 29.2747 0.918142 27.8154 0.918142 23.4706C0.918142 19.4907 4.23673 16.7379 8.84956 16.7379C11.9175 16.6758 14.9068 17.7109 17.2788 19.6565L15.0664 22.7409C12.9757 21.1821 10.885 20.353 8.76106 20.353C6.37168 20.353 4.97788 21.5801 4.97788 23.1721C4.97788 24.9631 6.03982 25.7591 10.5089 26.8204C15.4204 28.0144 17.9757 29.7722 17.9757 33.6858C17.9757 38.0305 14.5575 40.6175 9.6792 40.6175C6.1016 40.6322 2.64828 39.3069 0 36.9029H0Z" fill="white"/>
<path d="M29.1035 17.0695H33.1854V36.5712H45.3978V40.2858H29.1035V17.0695Z" fill="white"/>
<path d="M64.1591 16.9037H67.9423L78.1635 40.2858H73.8493L71.5153 34.6807H60.5308L58.1414 40.2858H53.96L64.1591 16.9037ZM70.0219 31.0656L66.0064 21.7791L62.0241 31.0656H70.0219Z" fill="white"/>
<path d="M91.6589 31.1319L82.4111 17.0695H87.2231L93.7275 27.351L100.298 17.0695H104.977L95.774 31.0324V40.2858H91.6589V31.1319Z" fill="white"/>
<path d="M68.0646 5.29V0H63.6398V5.29C63.3692 5.46244 63.1463 5.70014 62.9916 5.98124C62.837 6.26233 62.7556 6.57778 62.7549 6.89856V9.83376C62.7548 10.0884 62.8058 10.3406 62.9047 10.5752C63.0037 10.8099 63.1488 11.0224 63.3313 11.2001C63.5138 11.3779 63.73 11.5173 63.9673 11.6102C64.2046 11.703 64.4581 11.7475 64.7128 11.7408H67.0635C67.5696 11.7408 68.0549 11.5399 68.4128 11.1823C68.7707 10.8246 68.9717 10.3395 68.9717 9.83376V6.89856C68.9686 6.57571 68.8839 6.2589 68.7253 5.97764C68.5666 5.69637 68.3394 5.45981 68.0646 5.29ZM64.6907 5.84277H65.4208V6.7272H63.673C63.7142 6.48325 63.842 6.26232 64.033 6.10495C64.224 5.94757 64.4654 5.8643 64.7128 5.87041L64.6907 5.84277ZM66.3058 5.84277H67.0414C67.2885 5.84317 67.5272 5.93295 67.7132 6.09553C67.8993 6.2581 68.0202 6.48247 68.0536 6.7272H66.3058V5.84277ZM64.5414 4.97492V0.878903H67.1852V4.97492H64.5414ZM67.0414 10.8453H64.7128C64.44 10.8453 64.1783 10.737 63.9854 10.5442C63.7925 10.3514 63.6841 10.0899 63.6841 9.81718V7.6061H65.4429V9.81718H66.3279V7.6061H68.0867V9.81718C68.0898 9.9552 68.0648 10.0924 68.0133 10.2205C67.9619 10.3486 67.885 10.465 67.7873 10.5626C67.6896 10.6603 67.5732 10.7371 67.445 10.7885C67.3168 10.84 67.1795 10.8649 67.0414 10.8619V10.8453Z" fill="white"/>
<path d="M42.6663 0.580444C41.8905 0.645027 41.1685 1.00284 40.6475 1.58096C40.4859 1.74868 40.2994 1.8904 40.0944 2.00106L39.9506 1.96237C37.39 1.31825 34.7592 0.995156 32.1187 1.00055H31.8588L31.7814 1.24929C31.5714 1.99563 31.469 2.76806 31.4772 3.54329C31.4678 4.31858 31.5702 5.09119 31.7814 5.83728L31.8588 6.08602H32.1187C32.4949 6.08602 32.871 6.08602 33.2249 6.08602L33.955 10.2097C34.0081 10.4787 34.1517 10.7214 34.3621 10.8974C34.5724 11.0734 34.8367 11.1721 35.111 11.177H36.1176C36.2561 11.181 36.3937 11.1535 36.5199 11.0964C36.6462 11.0394 36.7578 10.9544 36.8463 10.8478C36.9347 10.7413 36.9978 10.616 37.0306 10.4815C37.0635 10.347 37.0652 10.2068 37.0358 10.0715L36.5878 7.53428H37.1409V6.82121H36.4661L36.2891 5.82069C37.5244 5.66266 38.749 5.43007 39.9561 5.12421L40.0999 5.09104C40.3049 5.19941 40.4916 5.33931 40.653 5.50562C41.1727 6.08556 41.8954 6.44375 42.6718 6.50613H43.0258V0.580444H42.6663ZM32.1906 3.54329C32.1888 2.92942 32.2575 2.31737 32.3953 1.71915C34.2942 1.73121 36.1881 1.91623 38.0535 2.27192V4.82018C36.1878 5.17315 34.2941 5.35815 32.3953 5.37295C32.2572 4.7729 32.1886 4.15899 32.1906 3.54329ZM36.3333 10.1765C36.3406 10.2079 36.3409 10.2405 36.3342 10.272C36.3275 10.3035 36.314 10.3332 36.2946 10.3589C36.2729 10.384 36.2455 10.4036 36.2148 10.4161C36.184 10.4286 36.1507 10.4336 36.1176 10.4308H35.1276C35.0218 10.4245 34.9208 10.3847 34.8392 10.3171C34.7576 10.2495 34.6998 10.1576 34.6741 10.0549L33.9606 6.01969C34.5137 5.98652 35.0668 5.94783 35.5756 5.88703L36.3333 10.1765ZM39.7183 4.44983C39.403 4.52721 39.0878 4.6046 38.767 4.67093V2.41564C39.0878 2.4875 39.403 2.55936 39.7183 2.64227V4.44983ZM42.3068 5.74883C41.8592 5.58608 41.4557 5.32108 41.1287 4.97496C40.9233 4.76841 40.6884 4.59332 40.4318 4.45535V2.63122C40.6897 2.4952 40.9248 2.31991 41.1287 2.11161C41.4561 1.76718 41.8595 1.50406 42.3068 1.34327V5.74883Z" fill="white"/>
<path d="M90.1995 2.47087C87.9208 4.01863 87.9871 4.28948 87.434 5.17944C87.1925 5.53595 87.0582 5.9541 87.0469 6.38448H87.1575C87.3832 6.3689 87.6085 6.42086 87.8046 6.53372C87.9137 6.50568 88.0209 6.4706 88.1254 6.4287C88.5841 6.25306 89.0608 6.12885 89.5469 6.05834C90.9407 5.41713 93.2416 5.33974 93.5789 5.33422C93.9163 5.32869 96.2227 5.41713 97.6166 6.05834C98.1025 6.12956 98.5791 6.25375 99.038 6.4287C99.1426 6.4706 99.2497 6.50568 99.3588 6.53372C99.5549 6.42086 99.7802 6.3689 100.006 6.38448H100.111C100.105 5.95319 99.9703 5.53351 99.7238 5.17944C99.1708 4.28948 99.2482 4.01863 96.9584 2.47087C94.6685 0.92312 94.6188 2.22213 93.5624 2.26082C92.5059 2.29951 92.4174 0.945231 90.1719 2.47087H90.1995Z" fill="#CA81B6"/>
<path d="M100.017 6.63321C99.823 6.61582 99.6288 6.66242 99.4639 6.76588C99.4385 6.77295 99.4118 6.77295 99.3864 6.76588C99.215 6.76588 98.8333 6.55583 98.1917 6.40105C97.7255 6.28174 97.246 6.2223 96.7647 6.22416C96.3546 6.22522 95.9454 6.26408 95.5424 6.34025C94.8971 6.47983 94.2429 6.57403 93.5844 6.62216C92.9278 6.57415 92.2754 6.47995 91.632 6.34025C91.2289 6.26432 90.8198 6.22547 90.4096 6.22416C89.9266 6.22231 89.4452 6.28174 88.9771 6.40105C88.3521 6.55583 87.9594 6.76588 87.7824 6.76588C87.7692 6.76661 87.7559 6.76452 87.7435 6.75976C87.7311 6.75499 87.7199 6.74766 87.7105 6.73824C87.5439 6.63925 87.3505 6.5948 87.1574 6.6111H87.0689H86.9141C87.8543 10.0162 92.445 10.2041 93.4296 10.2041H93.7282C94.7238 10.2041 99.309 10.0162 100.244 6.6111L100.111 6.63321H100.017Z" fill="#CA81B6"/>
<path d="M12.4174 8.4518C12.2236 8.4518 12.0341 8.50933 11.873 8.61708C11.7119 8.72483 11.5864 8.87797 11.5125 9.05707C11.4385 9.23617 11.4195 9.43318 11.4577 9.62312C11.4959 9.81306 11.5897 9.98738 11.7272 10.124C11.8646 10.2606 12.0396 10.3533 12.2299 10.3905C12.4201 10.4276 12.6171 10.4074 12.7959 10.3325C12.9747 10.2576 13.1272 10.1314 13.2341 9.96974C13.341 9.80812 13.3975 9.61841 13.3964 9.42467C13.3964 9.29645 13.3711 9.16948 13.3218 9.05109C13.2725 8.93269 13.2003 8.8252 13.1094 8.73478C13.0184 8.64437 12.9104 8.57283 12.7917 8.52426C12.6729 8.4757 12.5457 8.45107 12.4174 8.4518ZM12.4174 9.75081C12.3309 9.75081 12.2479 9.71645 12.1867 9.65528C12.1255 9.59412 12.0911 9.51117 12.0911 9.42467C12.0925 9.33862 12.1274 9.25649 12.1883 9.19563C12.2492 9.13478 12.3313 9.09996 12.4174 9.09854C12.504 9.09854 12.587 9.1329 12.6482 9.19406C12.7094 9.25522 12.7438 9.33818 12.7438 9.42467C12.7445 9.46771 12.7366 9.51045 12.7205 9.55036C12.7043 9.59027 12.6803 9.62652 12.6499 9.65695C12.6194 9.68739 12.5831 9.71138 12.5432 9.72751C12.5033 9.74363 12.4605 9.75155 12.4174 9.75081Z" fill="white"/>
<path d="M4.00435 8.10909C3.72969 8.49273 3.58264 8.95295 3.58399 9.42468C3.58269 9.91128 3.737 10.3856 4.0244 10.7784C4.31181 11.1711 4.71728 11.4619 5.18165 11.6081C5.64603 11.7544 6.14502 11.7486 6.60584 11.5914C7.06666 11.4343 7.46518 11.1342 7.74329 10.7347L9.16475 8.72819L10.5641 10.7292C10.7885 11.0502 11.092 11.3079 11.4452 11.4775C11.7984 11.6471 12.1894 11.7228 12.5804 11.6972C12.9714 11.6717 13.3492 11.5459 13.6773 11.3319C14.0055 11.1179 14.2729 10.8229 14.4536 10.4755C14.6344 10.128 14.7225 9.73989 14.7094 9.3485C14.6963 8.95712 14.5825 8.57572 14.3788 8.24115C14.1752 7.90658 13.8887 7.63014 13.547 7.43853C13.2052 7.24691 12.8199 7.1466 12.428 7.14727C11.9296 7.14718 11.4452 7.31244 11.0508 7.61712L10.4977 6.84878L12.7212 3.58191C13.0072 3.17429 13.1738 2.69499 13.2021 2.19793C13.2304 1.70087 13.1194 1.20577 12.8816 0.768316C12.8547 0.720262 12.8164 0.679519 12.7701 0.649648C12.7239 0.619777 12.671 0.601687 12.6161 0.596958C12.5618 0.59429 12.5077 0.604993 12.4585 0.628126C12.4093 0.651258 12.3665 0.686111 12.334 0.729622L9.15368 5.06886L5.93466 0.729622C5.90211 0.686111 5.85936 0.651258 5.81018 0.628126C5.76099 0.604993 5.70687 0.59429 5.65258 0.596958C5.59769 0.601687 5.5448 0.619777 5.49852 0.649648C5.45224 0.679519 5.41398 0.720262 5.38709 0.768316C5.14869 1.20481 5.03593 1.69877 5.06131 2.19541C5.0867 2.69206 5.24923 3.17196 5.5309 3.58191L7.81519 6.84325L7.2289 7.61712C6.83147 7.31423 6.34597 7.14926 5.84616 7.14727C5.48026 7.13731 5.11783 7.22033 4.79279 7.38855C4.46776 7.55677 4.19076 7.80469 3.98775 8.10909H4.00435ZM12.5165 1.59747C12.5795 1.87393 12.5835 2.16057 12.5283 2.43868C12.473 2.7168 12.3597 2.98015 12.1957 3.21155L10.0608 6.29601L9.55745 5.6161L12.5165 1.59747ZM7.19019 10.3589C6.99748 10.636 6.72347 10.8466 6.40596 10.9615C6.08845 11.0764 5.74308 11.0901 5.41749 11.0005C5.09189 10.911 4.80211 10.7227 4.58812 10.4616C4.37412 10.2006 4.24645 9.87956 4.22272 9.5429C4.19898 9.20624 4.28035 8.87052 4.4556 8.58203C4.63085 8.29354 4.89135 8.06651 5.20117 7.93223C5.51098 7.79796 5.85485 7.76307 6.18535 7.83237C6.51585 7.90167 6.81669 8.07174 7.04638 8.31914C7.07898 8.35362 7.11871 8.38059 7.16281 8.39815C7.2069 8.41571 7.2543 8.42344 7.3017 8.42081C7.34909 8.41818 7.39534 8.40524 7.43722 8.38291C7.4791 8.36058 7.5156 8.32938 7.54417 8.2915L8.21895 7.40707L8.77205 8.16437L7.19019 10.3589ZM12.417 11.0553C12.1513 11.0587 11.889 10.997 11.6527 10.8756C11.4165 10.7541 11.2136 10.5767 11.0619 10.3589L6.08399 3.20603C5.92035 2.9745 5.80764 2.71096 5.7533 2.43275C5.69896 2.15454 5.70422 1.86797 5.76873 1.59194L10.73 8.2915C10.7586 8.32938 10.7951 8.36058 10.837 8.38291C10.8788 8.40524 10.9251 8.41818 10.9725 8.42081C11.0199 8.42344 11.0673 8.41571 11.1114 8.39815C11.1555 8.38059 11.1952 8.35362 11.2278 8.31914C11.4121 8.12254 11.6424 7.97481 11.898 7.88924C12.1536 7.80366 12.4264 7.78293 12.692 7.82891C12.9576 7.87489 13.2076 7.98614 13.4195 8.15264C13.6315 8.31914 13.7986 8.53568 13.906 8.78277C14.0134 9.02987 14.0576 9.29976 14.0347 9.56818C14.0119 9.83661 13.9226 10.0951 13.7749 10.3205C13.6272 10.5459 13.4258 10.731 13.1888 10.8593C12.9517 10.9876 12.6865 11.0549 12.417 11.0553Z" fill="white"/>
<path d="M5.86276 8.4518C5.6689 8.4518 5.4794 8.50933 5.31829 8.61708C5.15718 8.72483 5.03171 8.87797 4.95778 9.05707C4.88385 9.23617 4.86478 9.43318 4.90301 9.62312C4.94123 9.81306 5.03502 9.98738 5.17249 10.124C5.30996 10.2606 5.48491 10.3533 5.67518 10.3905C5.86545 10.4276 6.06246 10.4074 6.24124 10.3325C6.42003 10.2576 6.57254 10.1314 6.67945 9.96974C6.78635 9.80812 6.84283 9.61841 6.84174 9.42467C6.84174 9.29645 6.81638 9.16948 6.76711 9.05109C6.71785 8.93269 6.64565 8.8252 6.55467 8.73478C6.46369 8.64437 6.35572 8.57283 6.23698 8.52426C6.11823 8.4757 5.99106 8.45107 5.86276 8.4518ZM5.86276 9.75081C5.77621 9.75081 5.69321 9.71645 5.63201 9.65528C5.57081 9.59412 5.53643 9.51117 5.53643 9.42467C5.53785 9.33862 5.57269 9.25649 5.63358 9.19563C5.69447 9.13478 5.77665 9.09996 5.86276 9.09854C5.9493 9.09854 6.03231 9.1329 6.0935 9.19406C6.1547 9.25522 6.18908 9.33818 6.18908 9.42467C6.18983 9.46771 6.1819 9.51045 6.16577 9.55036C6.14963 9.59027 6.12563 9.62652 6.09517 9.65695C6.06472 9.68739 6.02845 9.71138 5.98852 9.72751C5.94859 9.74363 5.90582 9.75155 5.86276 9.75081Z" fill="white"/>
<path d="M1.75915 52.2919H1.20605V46.8748H1.75915V49.6386C1.88508 49.4797 2.04577 49.3517 2.22891 49.2645C2.41204 49.1773 2.61273 49.1332 2.81557 49.1356C3.02538 49.1386 3.23231 49.1848 3.42346 49.2713C3.6146 49.3578 3.78585 49.4828 3.9265 49.6384C4.06716 49.794 4.17421 49.9769 4.24096 50.1757C4.30771 50.3745 4.33273 50.585 4.31446 50.7939C4.32958 50.9979 4.30275 51.2028 4.23561 51.396C4.16848 51.5892 4.06246 51.7666 3.92411 51.9173C3.78575 52.068 3.61798 52.1888 3.43113 52.2722C3.24429 52.3557 3.04233 52.4 2.83769 52.4025C2.62955 52.4077 2.42315 52.3633 2.23559 52.2729C2.04804 52.1825 1.88472 52.0488 1.75915 51.8828V52.2919ZM3.7669 50.7718C3.78133 50.6291 3.76653 50.485 3.7234 50.3482C3.68027 50.2115 3.60972 50.0849 3.51604 49.9763C3.42237 49.8677 3.30753 49.7792 3.17854 49.7164C3.04955 49.6536 2.90911 49.6177 2.76579 49.611C2.6221 49.6165 2.48101 49.6509 2.35099 49.7123C2.22096 49.7737 2.10468 49.8606 2.00912 49.968C1.91355 50.0754 1.84068 50.201 1.79488 50.3372C1.74907 50.4734 1.73128 50.6175 1.74256 50.7607C1.72964 50.904 1.74633 51.0485 1.79158 51.1851C1.83684 51.3217 1.9097 51.4475 2.00565 51.5548C2.10159 51.6621 2.21857 51.7486 2.34933 51.8088C2.48009 51.869 2.62184 51.9018 2.76579 51.905C2.90734 51.9003 3.04644 51.8667 3.17456 51.8064C3.30268 51.7461 3.41712 51.6602 3.51086 51.5541C3.6046 51.448 3.67566 51.3239 3.71969 51.1894C3.76372 51.0548 3.77978 50.9127 3.7669 50.7718Z" fill="white"/>
<path d="M13.8274 51.507C13.7287 51.6928 13.5997 51.8609 13.4457 52.0045C13.1634 52.2527 12.7985 52.3868 12.4225 52.3803C12.2125 52.3892 12.003 52.353 11.8082 52.2741C11.6134 52.1952 11.4377 52.0756 11.2931 51.9231C11.1485 51.7707 11.0382 51.5891 10.9697 51.3905C10.9012 51.1919 10.876 50.9809 10.896 50.7718C10.8725 50.5623 10.8938 50.3503 10.9582 50.1496C11.0227 49.9489 11.129 49.7642 11.2701 49.6075C11.4112 49.4509 11.5838 49.3258 11.7768 49.2407C11.9697 49.1555 12.1784 49.1122 12.3893 49.1135C12.6142 49.1033 12.8382 49.1483 13.0417 49.2447C13.2452 49.341 13.4219 49.4858 13.5564 49.6663C13.7619 50.027 13.8562 50.4405 13.8274 50.8547H11.4325C11.425 50.9888 11.4448 51.1229 11.4909 51.2491C11.5369 51.3752 11.6081 51.4906 11.7002 51.5884C11.7923 51.6861 11.9034 51.7641 12.0266 51.8176C12.1498 51.871 12.2827 51.8989 12.417 51.8994C12.6474 51.907 12.8723 51.8281 13.0475 51.6783C13.1845 51.5618 13.294 51.4164 13.3683 51.2527L13.8274 51.507ZM13.2743 50.4014C13.245 50.1811 13.1371 49.9787 12.9705 49.8314C12.8038 49.6842 12.5896 49.602 12.3672 49.5999C12.1458 49.6053 11.9333 49.6887 11.7674 49.8353C11.6015 49.982 11.4926 50.1825 11.4601 50.4014H13.2743Z" fill="white"/>
<path d="M22.9647 49.1964H23.5178V52.2919H22.9647V51.8607C22.8416 52.024 22.6819 52.1561 22.4984 52.2463C22.3149 52.3366 22.1128 52.3825 21.9083 52.3803C21.4941 52.3562 21.1049 52.1747 20.8202 51.8731C20.5355 51.5715 20.377 51.1726 20.377 50.758C20.377 50.3433 20.5355 49.9444 20.8202 49.6428C21.1049 49.3412 21.4941 49.1597 21.9083 49.1356C22.1126 49.131 22.3151 49.1753 22.4988 49.2647C22.6826 49.3541 22.8423 49.4861 22.9647 49.6497V49.1964ZM20.9569 50.7441C20.939 50.8883 20.9518 51.0347 20.9943 51.1736C21.0368 51.3125 21.1081 51.4409 21.2036 51.5505C21.2991 51.66 21.4166 51.7482 21.5485 51.8093C21.6804 51.8703 21.8237 51.903 21.9691 51.905C22.2497 51.8712 22.5082 51.7358 22.6958 51.5245C22.8833 51.3131 22.9868 51.0404 22.9868 50.758C22.9868 50.4755 22.8833 50.2028 22.6958 49.9914C22.5082 49.7801 22.2497 49.6447 21.9691 49.611C21.8258 49.6117 21.6843 49.6424 21.5537 49.7013C21.4231 49.7601 21.3063 49.8457 21.2108 49.9526C21.1154 50.0594 21.0435 50.185 20.9998 50.3214C20.956 50.4578 20.9414 50.6018 20.9569 50.7441Z" fill="white"/>
<path d="M30.9732 51.0095C30.948 51.2393 31.0006 51.4709 31.1226 51.6673C31.1916 51.746 31.2767 51.809 31.372 51.8522C31.4674 51.8954 31.5709 51.9178 31.6757 51.9178C31.7804 51.9178 31.8839 51.8954 31.9793 51.8522C32.0746 51.809 32.1597 51.746 32.2287 51.6673C32.3507 51.4709 32.4033 51.2393 32.3781 51.0095V49.1964H32.9312V51.0537C32.9491 51.2225 32.9318 51.3931 32.8804 51.5549C32.829 51.7166 32.7446 51.8659 32.6325 51.9934C32.3801 52.2412 32.0405 52.3801 31.6867 52.3801C31.3329 52.3801 30.9933 52.2412 30.7409 51.9934C30.6332 51.8659 30.5526 51.7178 30.5041 51.5582C30.4556 51.3985 30.4402 51.2306 30.4588 51.0648V49.1964H31.0119L30.9732 51.0095Z" fill="white"/>
<path d="M40.4146 49.6995V52.292H39.8615V49.6995H39.5352V49.1965H39.8615V48.0909H40.4146V49.1965H40.9677V49.6884L40.4146 49.6995Z" fill="white"/>
<path d="M48.5953 52.0045L47.1738 49.1964H47.7878L48.894 51.4075L49.9006 49.1964H50.4924L48.2247 53.9889H47.6163L48.5953 52.0045Z" fill="white"/>
<path d="M65.9351 49.9206C65.9034 49.8311 65.8451 49.7535 65.768 49.6981C65.6909 49.6428 65.5986 49.6124 65.5037 49.611C65.4557 49.6063 65.4073 49.6118 65.3616 49.6273C65.316 49.6428 65.2742 49.6679 65.2391 49.7009C65.204 49.7339 65.1764 49.774 65.1581 49.8186C65.1398 49.8632 65.1313 49.9111 65.1331 49.9593C65.1331 50.1804 65.2824 50.2467 65.6309 50.396C65.9235 50.4898 66.1892 50.6529 66.4052 50.8713C66.5185 51.0119 66.5774 51.1885 66.5711 51.3688C66.5755 51.5076 66.5505 51.6458 66.4977 51.7742C66.4448 51.9027 66.3653 52.0185 66.2645 52.114C66.1637 52.2096 66.0438 52.2827 65.9126 52.3286C65.7815 52.3745 65.6421 52.3922 65.5037 52.3804C65.2582 52.3909 65.0163 52.3194 64.816 52.1773C64.6157 52.0352 64.4685 51.8305 64.3975 51.5955L64.8621 51.402C64.9017 51.54 64.983 51.6624 65.0949 51.7524C65.2067 51.8425 65.3437 51.8958 65.4871 51.905C65.5532 51.9089 65.6195 51.899 65.6816 51.8758C65.7437 51.8526 65.8002 51.8166 65.8476 51.7703C65.895 51.724 65.9322 51.6683 65.9568 51.6068C65.9814 51.5452 65.9928 51.4793 65.9904 51.4131C65.9904 51.1256 65.7802 51.0316 65.4926 50.9045C65.2124 50.8087 64.956 50.6541 64.7404 50.4512C64.6418 50.3214 64.5928 50.1607 64.6021 49.998C64.597 49.8805 64.617 49.7633 64.6607 49.6542C64.7043 49.545 64.7708 49.4464 64.8555 49.3648C64.9402 49.2833 65.0414 49.2207 65.1521 49.1812C65.2629 49.1417 65.3809 49.1261 65.4981 49.1357C65.6796 49.1301 65.8584 49.18 66.0106 49.2788C66.1628 49.3776 66.2812 49.5205 66.3499 49.6884L65.9351 49.9206Z" fill="white"/>
<path d="M73.7611 54H73.208V49.1965H73.7611V49.6276C73.887 49.4687 74.0477 49.3407 74.2309 49.2535C74.414 49.1663 74.6147 49.1222 74.8175 49.1246C75.0278 49.1269 75.2353 49.1725 75.4271 49.2587C75.6189 49.3449 75.7909 49.4697 75.9321 49.6254C76.0734 49.7811 76.1809 49.9643 76.248 50.1635C76.3151 50.3627 76.3403 50.5735 76.322 50.7829C76.3363 50.9872 76.3087 51.1922 76.2409 51.3854C76.1732 51.5786 76.0666 51.756 75.9278 51.9066C75.789 52.0572 75.6209 52.1779 75.4338 52.2613C75.2467 52.3447 75.0445 52.389 74.8396 52.3915C74.6315 52.3967 74.4251 52.3523 74.2375 52.2619C74.05 52.1716 73.8867 52.0379 73.7611 51.8719V54ZM75.7744 50.7719C75.7888 50.6283 75.7737 50.4833 75.7299 50.3458C75.6861 50.2083 75.6146 50.0813 75.5197 49.9725C75.4249 49.8637 75.3087 49.7755 75.1784 49.7133C75.0481 49.6512 74.9065 49.6164 74.7622 49.611C74.6185 49.6166 74.4774 49.651 74.3474 49.7124C74.2174 49.7737 74.1011 49.8607 74.0055 49.9681C73.91 50.0755 73.8371 50.201 73.7913 50.3373C73.7455 50.4735 73.7277 50.6175 73.739 50.7608C73.7268 50.9049 73.7444 51.0499 73.7907 51.1869C73.8369 51.3238 73.9108 51.4499 74.0078 51.5572C74.1047 51.6644 74.2227 51.7507 74.3544 51.8105C74.4861 51.8703 74.6286 51.9025 74.7733 51.905C74.9151 51.9011 75.0546 51.8681 75.1831 51.8081C75.3116 51.748 75.4264 51.6622 75.5203 51.5559C75.6142 51.4496 75.6852 51.3252 75.7289 51.1903C75.7726 51.0554 75.7881 50.913 75.7744 50.7719Z" fill="white"/>
<path d="M85.4481 49.1964H86.0012V52.2919H85.4481V51.8607C85.325 52.024 85.1653 52.1561 84.9818 52.2463C84.7983 52.3366 84.5962 52.3825 84.3917 52.3803C83.9775 52.3562 83.5883 52.1747 83.3036 51.8731C83.0189 51.5715 82.8604 51.1726 82.8604 50.758C82.8604 50.3433 83.0189 49.9444 83.3036 49.6428C83.5883 49.3412 83.9775 49.1597 84.3917 49.1356C84.596 49.131 84.7985 49.1753 84.9822 49.2647C85.166 49.3541 85.3257 49.4861 85.4481 49.6497V49.1964ZM83.4403 50.7331C83.4224 50.8773 83.4352 51.0236 83.4777 51.1625C83.5202 51.3015 83.5915 51.4299 83.687 51.5394C83.7825 51.649 83.9 51.7371 84.0319 51.7982C84.1638 51.8593 84.3071 51.8919 84.4525 51.8939C84.7331 51.8601 84.9916 51.7248 85.1792 51.5134C85.3667 51.3021 85.4702 51.0294 85.4702 50.7469C85.4702 50.4644 85.3667 50.1917 85.1792 49.9804C84.9916 49.769 84.7331 49.6337 84.4525 49.5999C84.3082 49.6004 84.1656 49.6315 84.0341 49.691C83.9027 49.7505 83.7853 49.8371 83.6897 49.9452C83.5941 50.0533 83.5225 50.1803 83.4795 50.318C83.4365 50.4557 83.4232 50.6009 83.4403 50.7441V50.7331Z" fill="white"/>
<path d="M95.3539 50.0698C95.2367 49.9264 95.089 49.8109 94.9216 49.7315C94.7542 49.6522 94.5713 49.611 94.386 49.611C94.0954 49.6312 93.8232 49.7608 93.6245 49.9737C93.4258 50.1865 93.3153 50.4668 93.3153 50.758C93.3153 51.0491 93.4258 51.3294 93.6245 51.5423C93.8232 51.7552 94.0954 51.8848 94.386 51.905C94.577 51.9025 94.7652 51.8582 94.9373 51.7751C95.1093 51.692 95.2609 51.5722 95.3816 51.4241V52.0598C95.096 52.2689 94.751 52.3812 94.3971 52.3804C94.1804 52.3918 93.9636 52.3585 93.7604 52.2823C93.5572 52.2062 93.3719 52.089 93.2162 51.938C93.0604 51.787 92.9375 51.6055 92.8552 51.4048C92.7729 51.2041 92.7329 50.9886 92.7378 50.7718C92.7284 50.5515 92.7649 50.3317 92.8449 50.1263C92.925 49.9208 93.0469 49.7342 93.2029 49.5783C93.3589 49.4224 93.5456 49.3006 93.7511 49.2206C93.9567 49.1406 94.1766 49.1041 94.3971 49.1135C94.7411 49.1109 95.0774 49.2152 95.3594 49.412L95.3539 50.0698Z" fill="white"/>
<path d="M104.873 51.507C104.776 51.6926 104.649 51.8608 104.497 52.0045C104.212 52.2531 103.845 52.3871 103.468 52.3804C103.258 52.3884 103.049 52.3516 102.855 52.2723C102.661 52.1931 102.486 52.0733 102.342 51.921C102.198 51.7686 102.088 51.5873 102.02 51.3891C101.952 51.1909 101.927 50.9804 101.947 50.7718C101.923 50.5623 101.945 50.3503 102.009 50.1496C102.073 49.9489 102.18 49.7642 102.321 49.6075C102.462 49.4509 102.635 49.3258 102.828 49.2407C103.02 49.1555 103.229 49.1122 103.44 49.1135C103.665 49.1042 103.889 49.1497 104.092 49.246C104.295 49.3423 104.472 49.4865 104.607 49.6663C104.816 50.0163 104.916 50.4202 104.895 50.8271H102.494C102.486 50.9608 102.505 51.0949 102.551 51.221C102.596 51.3471 102.667 51.4626 102.758 51.5604C102.85 51.6583 102.961 51.7364 103.084 51.7899C103.207 51.8434 103.339 51.8713 103.473 51.8718C103.705 51.8786 103.932 51.7999 104.109 51.6507C104.243 51.5312 104.352 51.3865 104.43 51.2251L104.873 51.507ZM104.32 50.4014C104.288 50.1859 104.182 49.9883 104.019 49.8436C103.856 49.699 103.647 49.6166 103.429 49.611C103.208 49.6164 102.995 49.6998 102.829 49.8464C102.663 49.993 102.554 50.1935 102.522 50.4125L104.32 50.4014Z" fill="white"/>
</svg>
